<?xml version="1.0" ?><!DOCTYPE svg  PUBLIC '-//W3C//DTD SVG 1.1//EN'  'http://www.w3.org/Graphics/SVG/1.1/DTD/svg11.dtd'><svg height="512px" style="enable-background:new 0 0 512 512;" version="1.1" viewBox="0 0 512 512" width="512px" xml:space="preserve" xmlns="http://www.w3.org/2000/svg" xmlns:xlink="http://www.w3.org/1999/xlink"><g id="_x35_8-like"><g><g><path d="M17.397,241.049v209.338c0,8.253,6.68,14.952,14.916,14.952h134.213V226.093H32.313     C24.077,226.093,17.397,232.794,17.397,241.049L17.397,241.049z M17.397,241.049" style="fill:#1872D9;"/><path d="M434.949,196.188H315.648v-89.719c0-32.987-26.752-59.807-59.646-59.807h-44.744     c-8.227,0-14.906,6.697-14.906,14.948v70.79l-57.684,101.233c-1.313,2.267-1.969,4.813-1.969,7.416v209.338     c0,8.253,6.68,14.952,14.91,14.952h239.348c23.566,0,44.979-13.964,54.492-35.526l47.838-107.933     c0.867-1.909,1.316-3.977,1.316-6.067V256C494.604,223.01,467.848,196.188,434.949,196.188L434.949,196.188z M434.949,196.188" style="fill:#BCDFFD;"/></g></g></g><g id="Layer_1"/></svg>