<svg width="33" height="33" viewBox="0 0 33 33" fill="none" xmlns="http://www.w3.org/2000/svg">
<rect x="0.558594" y="0.484375" width="32.2269" height="32.2269" rx="16.1134" fill="#F4F6F8"/>
<path fill-rule="evenodd" clip-rule="evenodd" d="M10.5325 7.23778C6.55495 8.455 5.13675 12.5686 6.35025 16.1676C8.30225 21.9389 16.6735 26.2663 16.6735 26.2663C16.6735 26.2663 25.1069 21.8723 26.9956 16.1676C28.2079 12.5686 26.7807 8.455 22.8032 7.23778C20.7132 6.6007 18.319 7.00895 16.6735 8.21757C14.9341 6.97457 12.6247 6.5964 10.5325 7.23778ZM20.7083 10.4464C20.2773 10.336 19.8384 10.5961 19.7281 11.0271C19.6177 11.4582 19.8778 11.8971 20.3088 12.0074C21.7939 12.3875 22.6745 13.385 22.7763 14.3783C22.8217 14.821 23.2174 15.143 23.66 15.0976C24.1026 15.0522 24.4247 14.6566 24.3793 14.2139C24.1898 12.3661 22.6495 10.9432 20.7083 10.4464Z" fill="#C5D0E6"/>
</svg>
