<svg width="40" height="40" viewBox="0 0 40 40" fill="none" xmlns="http://www.w3.org/2000/svg">
<rect width="40" height="40" rx="7" fill="#EAEAEA"/>
<g clip-path="url(#clip0_4179_16327)">
<path d="M26.3333 12H25.2778V11C25.2778 10.7348 25.1666 10.4804 24.9686 10.2929C24.7707 10.1054 24.5022 10 24.2222 10C23.9423 10 23.6738 10.1054 23.4758 10.2929C23.2779 10.4804 23.1667 10.7348 23.1667 11V12H16.8333V11C16.8333 10.7348 16.7221 10.4804 16.5242 10.2929C16.3262 10.1054 16.0577 10 15.7778 10C15.4978 10 15.2293 10.1054 15.0314 10.2929C14.8334 10.4804 14.7222 10.7348 14.7222 11V12H13.6667C12.8268 12 12.0214 12.3161 11.4275 12.8787C10.8336 13.4413 10.5 14.2044 10.5 15V27C10.5 27.7956 10.8336 28.5587 11.4275 29.1213C12.0214 29.6839 12.8268 30 13.6667 30H26.3333C27.1732 30 27.9786 29.6839 28.5725 29.1213C29.1664 28.5587 29.5 27.7956 29.5 27V15C29.5 14.2044 29.1664 13.4413 28.5725 12.8787C27.9786 12.3161 27.1732 12 26.3333 12ZM15.7778 25C15.569 25 15.3649 24.9414 15.1913 24.8315C15.0178 24.7216 14.8825 24.5654 14.8026 24.3827C14.7227 24.2 14.7018 23.9989 14.7425 23.8049C14.7832 23.6109 14.8838 23.4327 15.0314 23.2929C15.179 23.153 15.3671 23.0578 15.5718 23.0192C15.7766 22.9806 15.9888 23.0004 16.1817 23.0761C16.3746 23.1518 16.5395 23.28 16.6554 23.4444C16.7714 23.6089 16.8333 23.8022 16.8333 24C16.8333 24.2652 16.7221 24.5196 16.5242 24.7071C16.3262 24.8946 16.0577 25 15.7778 25ZM24.2222 25H20C19.72 25 19.4516 24.8946 19.2536 24.7071C19.0557 24.5196 18.9444 24.2652 18.9444 24C18.9444 23.7348 19.0557 23.4804 19.2536 23.2929C19.4516 23.1054 19.72 23 20 23H24.2222C24.5022 23 24.7707 23.1054 24.9686 23.2929C25.1666 23.4804 25.2778 23.7348 25.2778 24C25.2778 24.2652 25.1666 24.5196 24.9686 24.7071C24.7707 24.8946 24.5022 25 24.2222 25ZM27.3889 19H12.6111V15C12.6111 14.7348 12.7223 14.4804 12.9203 14.2929C13.1182 14.1054 13.3867 14 13.6667 14H14.7222V15C14.7222 15.2652 14.8334 15.5196 15.0314 15.7071C15.2293 15.8946 15.4978 16 15.7778 16C16.0577 16 16.3262 15.8946 16.5242 15.7071C16.7221 15.5196 16.8333 15.2652 16.8333 15V14H23.1667V15C23.1667 15.2652 23.2779 15.5196 23.4758 15.7071C23.6738 15.8946 23.9423 16 24.2222 16C24.5022 16 24.7707 15.8946 24.9686 15.7071C25.1666 15.5196 25.2778 15.2652 25.2778 15V14H26.3333C26.6133 14 26.8818 14.1054 27.0797 14.2929C27.2777 14.4804 27.3889 14.7348 27.3889 15V19Z" fill="#262D34"/>
</g>
<defs>
<clipPath id="clip0_4179_16327">
<rect width="20" height="20" fill="white" transform="translate(10 10)"/>
</clipPath>
</defs>
</svg>
