<svg width="40" height="40" viewBox="0 0 40 40" fill="none" xmlns="http://www.w3.org/2000/svg">
<rect width="40" height="40" rx="7" fill="#FFA500"/>
<g clip-path="url(#clip0_4179_16331)">
<path d="M29.3442 17.5198L20.8802 10.3395C20.6391 10.121 20.3254 10 20 10C19.6747 10 19.3609 10.121 19.1199 10.3395L10.6568 17.5199C10.4501 17.7071 10.285 17.9355 10.1719 18.1905C10.0589 18.4454 10.0005 18.7211 10.0005 19V29.3357C10.0005 29.5119 10.0705 29.6808 10.195 29.8054C10.3196 29.93 10.4885 30 10.6647 30L16.0005 30C16.5528 30 17.0005 29.5523 17.0005 29V25C17.0005 24.436 17.5526 23.9788 18.1168 23.9788H21.8833C22.4476 23.9788 23.0005 24.436 23.0005 25V29C23.0005 29.5523 23.4482 30 24.0005 30H29.3363C29.5125 30 29.6814 29.93 29.806 29.8054C29.9305 29.6808 30.0005 29.5119 30.0005 29.3357V19C30.0004 18.7211 29.942 18.4454 29.829 18.1904C29.716 17.9355 29.5508 17.7071 29.3442 17.5198Z" fill="white"/>
</g>
<defs>
<clipPath id="clip0_4179_16331">
<rect width="20" height="20" fill="white" transform="translate(10 10)"/>
</clipPath>
</defs>
</svg>
