<svg width="40" height="40" viewBox="0 0 40 40" fill="none" xmlns="http://www.w3.org/2000/svg">
<rect width="40" height="40" rx="7" fill="#EAEAEA"/>
<g clip-path="url(#clip0_4179_16304)">
<path d="M28.706 18.568V18.3252C28.706 17.33 27.8589 16.4806 26.7531 16.2378C26.3767 12.7427 23.4825 10 20.0001 10C16.5177 10 13.6236 12.7426 13.2471 16.2378C12.1177 16.4806 11.2942 17.33 11.2942 18.3252V18.568C10.5648 18.7136 10 19.4418 10 20.2914C10 21.1651 10.5648 21.8689 11.2942 22.0147V22.2575C11.2942 23.4469 12.4706 24.4177 13.9294 24.4177H14.4706V16.8935C14.5177 13.8109 16.9883 11.311 20 11.311C23.0352 11.311 25.5294 13.8596 25.5294 17.0148V24.4177H26.0706C27.5059 24.4177 28.7058 23.4469 28.7058 22.2575V22.0147C29.4352 21.8691 30 21.141 30 20.2914C30 19.4174 29.4352 18.7136 28.7058 18.568H28.706Z" fill="#262D34"/>
<path d="M24.0444 21C23.621 21 23.2914 21.3398 23.2914 21.7768C23.2914 23.6457 21.809 25.1747 19.9974 25.1747C18.1856 25.1747 16.7033 23.6456 16.7033 21.7768C16.7033 21.34 16.3739 21 15.9503 21C15.5268 21 15.1973 21.3398 15.1973 21.7768C15.1973 24.2525 16.962 26.3399 19.3384 26.6797V29.3446C19.3384 29.7086 19.6207 30 19.9738 30C20.3266 30 20.6091 29.6844 20.6091 29.3446V26.6553C22.9855 26.3155 24.7739 24.2523 24.7739 21.7524C24.7973 21.3398 24.4679 21 24.0444 21Z" fill="#262D34"/>
<path d="M19.9992 23.6846C18.7521 23.6846 17.7402 22.641 17.7402 21.3544V16.3302C17.7402 15.0438 18.7519 14 19.9992 14C21.2462 14 22.2581 15.0436 22.2581 16.3302V21.3544C22.2581 22.6408 21.2462 23.6844 19.9992 23.6844V23.6846Z" fill="#262D34"/>
</g>
<defs>
<clipPath id="clip0_4179_16304">
<rect width="20" height="20" fill="white" transform="translate(10 10)"/>
</clipPath>
</defs>
</svg>
