<svg width="18" height="16" viewBox="0 0 18 16" fill="none" xmlns="http://www.w3.org/2000/svg">
<path fill-rule="evenodd" clip-rule="evenodd" d="M0.888916 2.11089C0.888916 1.43588 1.43612 0.888672 2.11114 0.888672H16.7778C17.4528 0.888672 18 1.43588 18 2.11089C18 2.78591 17.4528 3.33312 16.7778 3.33312H2.11114C1.43612 3.33312 0.888916 2.78591 0.888916 2.11089Z" fill="black"/>
<path fill-rule="evenodd" clip-rule="evenodd" d="M0.888916 8.222C0.888916 7.54699 1.43612 6.99978 2.11114 6.99978H16.7778C17.4528 6.99978 18 7.54699 18 8.222C18 8.89702 17.4528 9.44423 16.7778 9.44423H2.11114C1.43612 9.44423 0.888916 8.89702 0.888916 8.222Z" fill="black"/>
<path fill-rule="evenodd" clip-rule="evenodd" d="M0.888916 14.3331C0.888916 13.6581 1.43612 13.1109 2.11114 13.1109H16.7778C17.4528 13.1109 18 13.6581 18 14.3331C18 15.0081 17.4528 15.5553 16.7778 15.5553H2.11114C1.43612 15.5553 0.888916 15.0081 0.888916 14.3331Z" fill="black"/>
</svg>
