<svg width="36" height="36" viewBox="0 0 36 36" fill="none" xmlns="http://www.w3.org/2000/svg">
<rect y="0.227539" width="35.7612" height="35.7612" rx="4.47014" fill="#46475B"/>
<path d="M27.1822 6.93262H21.9883C21.5634 6.93262 21.2328 7.26198 21.2328 7.68556C21.2328 8.10895 21.587 8.46181 22.0118 8.46181H25.3643L16.393 17.402L14.5515 15.5669C14.2446 15.261 13.7724 15.261 13.4654 15.5669L9.66464 19.3547C9.4522 18.7194 9.35767 18.0372 9.35767 17.3548C9.35767 13.7552 12.3087 10.8144 15.9209 10.8144C17.2666 10.8144 18.5414 11.2143 19.5802 11.9202L20.6663 10.8378C19.3205 9.87321 17.6917 9.28504 15.921 9.28504C11.459 9.28504 7.82324 12.9081 7.82324 17.3547C7.82308 21.8017 11.4352 25.4013 15.8974 25.4013C17.8569 25.4013 19.6511 24.6954 21.044 23.5427L26.5685 29.048C26.7101 29.1891 26.9225 29.2833 27.1114 29.2833C27.3003 29.2833 27.5127 29.2128 27.6544 29.048C27.9613 28.7421 27.9613 28.2716 27.6544 27.9657L22.13 22.484C23.2868 21.0959 23.995 19.2843 23.995 17.3551C23.995 16.4376 23.8296 15.5435 23.5463 14.7202L22.3187 15.9436C22.413 16.3907 22.484 16.8612 22.484 17.3316C22.484 20.9312 19.5329 23.8721 15.9208 23.8721C13.5835 23.8721 11.506 22.6252 10.3492 20.7901C10.3727 20.7666 10.3965 20.7667 10.42 20.743L13.9849 17.1905L15.8263 19.0256C16.1333 19.3315 16.6054 19.3315 16.9124 19.0256L26.4267 9.54433V12.8851C26.4267 13.3085 26.7572 13.6381 27.1822 13.6381C27.6071 13.6381 27.9378 13.3087 27.9378 12.8851V7.70925C27.9613 7.26203 27.6071 6.9327 27.1822 6.9327L27.1822 6.93262Z" fill="#848DF9"/>
</svg>
