<svg width="36" height="36" viewBox="0 0 36 36" fill="none" xmlns="http://www.w3.org/2000/svg">
<rect y="0.0522461" width="35.7612" height="35.7612" rx="4.47014" fill="#335248"/>
<path d="M18.6573 29.108C12.375 29.108 7.26416 24.0949 7.26416 17.9329C7.26416 11.7709 12.375 6.75732 18.6573 6.75732C22.0811 6.75732 25.2921 8.24739 27.4666 10.8454C27.8888 11.3497 27.9806 11.9309 27.4666 12.3451C27.1041 12.6372 26.4653 12.5876 26.2623 12.3451C24.5469 10.2958 21.7921 8.43363 18.6569 8.43363C13.7031 8.43363 8.94046 13.0736 8.94046 17.9328C8.94046 22.7918 13.703 27.4317 18.6569 27.4317C21.7686 27.4317 25.1642 25.1993 26.821 22.6104C27.1748 22.0577 27.6432 22.0594 27.933 22.2379C28.538 22.6104 28.6666 23.3141 28.3128 23.8666C26.2127 27.1488 22.6026 29.108 18.6573 29.108Z" fill="#3ED6A4"/>
<path d="M16.2046 12.3452L24.0273 17.6178L16.2046 22.403V12.3452Z" fill="#3ED6A4"/>
</svg>
