<svg width="36" height="37" viewBox="0 0 36 37" fill="none" xmlns="http://www.w3.org/2000/svg">
<rect y="0.350586" width="35.7612" height="35.7612" rx="4.47014" fill="#5A4F43"/>
<path d="M13.2473 23.6958L12.651 24.7918C12.4505 25.0006 12.1247 24.9746 11.9244 24.7658L6.8372 19.1549C6.66169 18.9461 6.66169 18.6331 6.8372 18.4242L11.9244 12.8134C12.1249 12.6046 12.4507 12.5785 12.651 12.7873L13.2473 13.8834C13.4478 14.0922 13.4728 14.4315 13.2723 14.6401L9.08439 18.7896L13.2725 22.9389C13.448 23.1477 13.4478 23.487 13.2473 23.6958Z" fill="#EEA956"/>
<path d="M28.9059 19.1549L23.819 24.7658C23.6185 24.9746 23.2927 25.0006 23.0924 24.7918L22.5145 23.6958C22.314 23.487 22.289 23.1476 22.4895 22.939L26.6764 18.7896L22.5137 14.6402C22.3132 14.4313 22.3382 14.092 22.5387 13.8834L23.0924 12.7873C23.2929 12.5785 23.6187 12.6046 23.819 12.8134L28.9059 18.4243C29.1064 18.6331 29.1064 18.9461 28.9059 19.1549Z" fill="#EEA956"/>
<path d="M20.2622 25.631L19.1006 26.0349C18.8056 26.1157 18.5107 25.9273 18.4303 25.631L15.1056 12.6218C15.0252 12.3255 15.2128 12.0292 15.5077 11.9484L16.8126 11.5445C17.1076 11.4637 17.4025 11.6522 17.483 11.9484L20.6644 24.9577C20.7179 25.2537 20.5571 25.5502 20.2622 25.631Z" fill="#EEA956"/>
</svg>
