<svg width="36" height="37" viewBox="0 0 36 37" fill="none" xmlns="http://www.w3.org/2000/svg">
<rect y="0.525879" width="35.7638" height="35.7612" rx="4.47014" fill="#473E3B"/>
<path d="M17.8823 7.23096C11.7191 7.23096 6.70557 12.2441 6.70557 18.405C6.70557 24.5708 11.7187 29.5817 17.8823 29.5817C24.0459 29.5817 29.059 24.5708 29.059 18.405C29.059 12.2441 24.0459 7.23096 17.8823 7.23096ZM17.8823 27.913C12.64 27.913 8.37421 23.6498 8.37421 18.405C8.37421 13.1627 12.6401 8.8996 17.8823 8.8996C23.1268 8.8996 27.3876 13.1654 27.3876 18.405C27.3876 23.6495 23.1269 27.913 17.8823 27.913Z" fill="#FF8F67"/>
<path d="M18.4412 17.5972C16.926 16.9705 16.2817 16.5176 16.2817 15.614C16.2817 14.9194 16.7877 14.1166 18.1264 14.1166C19.2413 14.1166 19.9535 14.4991 20.3185 14.708L20.7538 13.5605C20.2505 13.2634 19.5357 12.9841 18.4938 12.9515L18.494 11.2627H17.4117V13.0219C15.8111 13.2812 14.7869 14.3784 14.7869 15.8229C14.7869 17.3379 15.8841 18.1383 17.6584 18.8329C18.9445 19.3564 19.6238 19.9454 19.6238 20.9042C19.6238 21.8957 18.7882 22.6106 17.5525 22.6106C16.5786 22.6106 15.6726 22.2784 15.0459 21.8606L14.6284 23.0257C15.2374 23.4636 16.2819 23.7757 17.291 23.7959V25.55H18.3881L18.3883 23.7404C20.1777 23.446 21.1365 22.1548 21.1365 20.7833C21.1363 19.233 20.233 18.3296 18.4411 17.5972H18.4412Z" fill="#FF8F67"/>
</svg>
